<svg xmlns="http://www.w3.org/2000/svg" viewBox="0 0 64 64" role="img" aria-label="Oak Chain favicon">
  <defs>
    <linearGradient id="bg" x1="0" y1="0" x2="1" y2="1">
      <stop offset="0%" stop-color="#1a1f3f" />
      <stop offset="100%" stop-color="#2d3f84" />
    </linearGradient>
    <linearGradient id="accent" x1="0" y1="0" x2="1" y2="1">
      <stop offset="0%" stop-color="#627EEA" />
      <stop offset="100%" stop-color="#9aa7ff" />
    </linearGradient>
  </defs>

  <rect x="2" y="2" width="60" height="60" rx="14" fill="url(#bg)" stroke="#8C8DFC" stroke-width="2" />

  <path d="M32 12L24 26L32 31L40 26L32 12Z" fill="url(#accent)" />
  <path d="M32 52L24 36L32 41L40 36L32 52Z" fill="#8C8DFC" />

  <path d="M16 32C20 23 27 19 32 19C37 19 44 23 48 32" fill="none" stroke="#cfd6ff" stroke-width="2.4" stroke-linecap="round" />
  <path d="M32 22V42" fill="none" stroke="#dfe4ff" stroke-width="2.4" stroke-linecap="round" />
  <path d="M23 33C26 31 29 30 32 30C35 30 38 31 41 33" fill="none" stroke="#dfe4ff" stroke-width="2.1" stroke-linecap="round" />

  <circle cx="14.5" cy="32" r="2.4" fill="#8C8DFC" />
  <circle cx="49.5" cy="32" r="2.4" fill="#8C8DFC" />
  <rect x="12.5" y="30.9" width="39" height="2.2" rx="1.1" fill="#8C8DFC" opacity="0.85" />
</svg>
